<svg width="141" height="141" viewBox="0 0 141 141" fill="none" xmlns="http://www.w3.org/2000/svg">
<g clip-path="url(#clip0_9:40)">
<path fill-rule="evenodd" clip-rule="evenodd" d="M65.9967 101.393C81.9087 110.015 100.108 116.348 118.151 115.108C124.716 114.657 130.794 112.764 137.033 110.882C137.47 110.75 137.72 110.287 137.589 109.847C137.455 109.407 136.991 109.157 136.551 109.291C130.432 111.136 124.476 113.007 118.037 113.449C100.25 114.672 82.3202 108.374 66.6489 99.8566L66.7605 99.6049C67.9795 96.8759 67.2244 92.893 65.233 88.7132C62.3793 82.7213 57.0658 76.2829 52.2841 72.7268C50.1351 71.1292 48.0758 70.1138 46.3776 69.9015C45.0536 69.7352 43.9178 70.0328 43.0403 70.825C41.1714 72.5145 41.237 75.3966 42.7185 78.7383C45.8152 85.7281 54.9102 94.9326 59.8429 97.8848C61.3835 98.8061 62.9505 99.7121 64.5415 100.594C64.3401 101.08 64.141 101.555 63.9265 102.008C63.3116 103.297 62.5565 104.424 61.1012 105.196C58.8319 106.398 56.1117 106.606 53.328 106.295C48.984 105.807 44.4868 104.041 41.1757 102.524C22.7361 94.077 13.6039 79.4255 8.70619 64.7172C3.76256 49.8622 3.11479 34.9372 1.65074 26.1332C1.57633 25.6802 1.1474 25.376 0.6944 25.4504C0.241398 25.5248 -0.0649794 25.9537 0.0116152 26.4067C1.48442 35.2676 2.15187 50.2889 7.13051 65.2424C12.1551 80.3425 21.5544 95.3638 40.482 104.036C43.9309 105.616 48.6185 107.439 53.142 107.947C56.2736 108.297 59.3265 108.017 61.8803 106.665C64.1716 105.45 65.082 103.555 65.9967 101.393ZM65.187 99.0512L65.2439 98.9265C66.3097 96.5411 65.4737 93.0834 63.7317 89.4288C60.9896 83.671 55.8884 77.48 51.2906 74.0617C49.7149 72.8887 48.2071 72.0462 46.8809 71.6917C45.7867 71.4006 44.8369 71.4422 44.1563 72.0593C43.5108 72.6392 43.2547 73.438 43.2657 74.3681C43.2766 75.4601 43.6399 76.7141 44.2373 78.0643C47.2136 84.7806 55.9563 93.6218 60.6964 96.458C62.1692 97.3377 63.6661 98.2043 65.187 99.0512Z" fill="#424D79"/>
<path fill-rule="evenodd" clip-rule="evenodd" d="M139.142 108.309C139.07 108.666 138.827 109.114 138.56 109.593C137.926 110.736 137.022 111.953 136.619 112.543C136.361 112.924 136.462 113.441 136.84 113.699C137.221 113.957 137.737 113.859 137.996 113.478C138.488 112.754 139.69 111.13 140.335 109.784C140.681 109.062 140.86 108.394 140.821 107.915C140.755 107.099 140.11 106.589 138.829 106.619C137.315 106.657 134.503 107.416 132.148 106.503C131.721 106.337 131.238 106.552 131.074 106.978C130.907 107.407 131.12 107.889 131.549 108.055C133.794 108.924 136.411 108.506 138.173 108.331C138.508 108.298 138.906 108.302 139.142 108.309Z" fill="#424D79"/>
</g>
<defs>
<clipPath id="clip0_9:40">
<rect width="141" height="141" fill="white"/>
</clipPath>
</defs>
</svg>
