<svg width="80" height="127" viewBox="0 0 80 127" fill="none" xmlns="http://www.w3.org/2000/svg">
<g clip-path="url(#clip0_19:113)">
<path d="M21.4125 126.1C0.323868 126.1 0.260892 125.956 0.0629612 125.461C0.0196531 125.362 -0.00182439 125.254 -1.67375e-05 125.146V28.3398C-1.67375e-05 28.1226 0.0862403 27.9144 0.239779 27.7609C0.393317 27.6073 0.60156 27.5211 0.818697 27.5211H21.9883V10.571C21.9866 10.4272 22.0232 10.2856 22.0944 10.1607C22.1655 10.0358 22.2686 9.93211 22.3931 9.86024L39.3522 0.107653C39.4797 0.0350865 39.6239 -0.00307083 39.7706 -0.00307083C39.9173 -0.00307083 40.0614 0.0350865 40.1889 0.107653L79.4422 23.3915C79.5667 23.4634 79.6698 23.5671 79.741 23.692C79.8121 23.8169 79.8487 23.9585 79.847 24.1023V125.146C79.847 125.363 79.7608 125.571 79.6072 125.725C79.4537 125.878 79.2455 125.965 79.0283 125.965C51.0661 126.046 33.0454 126.1 21.4125 126.1ZM1.64641 124.363C7.9442 124.498 53.1714 124.363 78.2006 124.363V24.5701L39.7571 1.79906L23.6257 11.0478V37.4626C23.6269 37.5709 23.6066 37.6783 23.566 37.7787C23.5254 37.879 23.4653 37.9703 23.3891 38.0473C23.313 38.1243 23.2223 38.1854 23.1224 38.2271C23.0225 38.2688 22.9153 38.2903 22.807 38.2903H1.64641V124.363ZM1.64641 36.6439H21.9883V29.1675H1.64641V36.6439Z" fill="#424D79"/>
<path d="M55.3126 125.884C55.0947 125.884 54.8855 125.798 54.7305 125.645C54.5755 125.491 54.4873 125.283 54.4849 125.065V49.7796C54.4873 49.5616 54.5755 49.3534 54.7305 49.2001C54.8855 49.0468 55.0947 48.9608 55.3126 48.9609H79.1723C79.3758 48.9822 79.5642 49.0781 79.7011 49.2301C79.838 49.3821 79.9138 49.5795 79.9138 49.7841C79.9138 49.9887 79.838 50.186 79.7011 50.338C79.5642 50.4901 79.3758 50.586 79.1723 50.6073H56.1313V125.056C56.1325 125.165 56.1122 125.272 56.0716 125.372C56.031 125.473 55.9709 125.564 55.8948 125.641C55.8186 125.718 55.728 125.779 55.628 125.821C55.5281 125.862 55.4209 125.884 55.3126 125.884Z" fill="#424D79"/>
<path d="M60.6478 38.1916H44.4535C44.3532 38.1807 44.2604 38.1335 44.1925 38.0589C44.1246 37.9844 44.0862 37.8876 44.0846 37.7868V21.5924C44.0846 21.4827 44.1282 21.3774 44.2058 21.2998C44.2834 21.2222 44.3887 21.1786 44.4984 21.1786H60.6928C60.8018 21.1809 60.9058 21.2252 60.9829 21.3023C61.06 21.3795 61.1043 21.4834 61.1066 21.5924V37.7868C61.1044 37.8439 61.0906 37.9001 61.0661 37.9517C61.0415 38.0034 61.0068 38.0496 60.9639 38.0874C60.921 38.1253 60.8708 38.154 60.8165 38.1719C60.7622 38.1898 60.7048 38.1965 60.6478 38.1916ZM44.8853 37.3729H60.2789V21.9883H44.8853V37.3729Z" fill="#424D79"/>
<path d="M44.3185 70.3284H24.2195C24.1105 70.3261 24.0065 70.2818 23.9294 70.2046C23.8523 70.1275 23.808 70.0236 23.8057 69.9145V49.7796C23.808 49.6714 23.8527 49.5684 23.93 49.4927C24.0074 49.4171 24.1113 49.3747 24.2195 49.3747H44.3185C44.4267 49.3747 44.5306 49.4171 44.608 49.4927C44.6853 49.5684 44.73 49.6714 44.7323 49.7796V69.9145C44.73 70.0236 44.6857 70.1275 44.6086 70.2046C44.5315 70.2818 44.4275 70.3261 44.3185 70.3284ZM24.6334 69.5007H43.9046V50.1934H24.6334V69.5007Z" fill="#424D79"/>
<path d="M23.7517 94.134H1.13358C1.02382 94.134 0.918555 94.0904 0.840942 94.0128C0.763329 93.9352 0.719727 93.8299 0.719727 93.7202C0.719727 93.6104 0.763329 93.5052 0.840942 93.4276C0.918555 93.3499 1.02382 93.3063 1.13358 93.3063H23.3378V79.5052H1.13358C1.03544 79.4906 0.945812 79.4412 0.881018 79.3661C0.816224 79.2909 0.78058 79.195 0.78058 79.0958C0.78058 78.9966 0.816224 78.9007 0.881018 78.8255C0.945812 78.7504 1.03544 78.701 1.13358 78.6864H23.7517C23.859 78.6864 23.962 78.7291 24.0379 78.805C24.1139 78.881 24.1565 78.9839 24.1565 79.0913V93.7202C24.1565 93.8284 24.1142 93.9323 24.0385 94.0097C23.9628 94.0871 23.8599 94.1317 23.7517 94.134Z" fill="#424D79"/>
<path d="M44.3185 111.795H34.5839C34.4749 111.793 34.3709 111.748 34.2938 111.671C34.2167 111.594 34.1723 111.49 34.17 111.381V101.664C34.1724 101.556 34.217 101.453 34.2944 101.378C34.3718 101.302 34.4757 101.26 34.5839 101.26H44.3185C44.4267 101.26 44.5306 101.302 44.608 101.378C44.6854 101.453 44.73 101.556 44.7323 101.664V111.381C44.73 111.49 44.6857 111.594 44.6086 111.671C44.5315 111.748 44.4275 111.793 44.3185 111.795ZM34.9978 110.976H43.9046V102.042H34.9978V110.976Z" fill="#424D79"/>
<path d="M73.9541 125.335C73.8444 125.335 73.7391 125.292 73.6615 125.214C73.5839 125.136 73.5403 125.031 73.5403 124.921V50.0855C73.5549 49.9873 73.6042 49.8977 73.6794 49.8329C73.7545 49.7681 73.8504 49.7325 73.9496 49.7325C74.0489 49.7325 74.1448 49.7681 74.2199 49.8329C74.2951 49.8977 74.3444 49.9873 74.359 50.0855V124.921C74.359 125.03 74.3167 125.133 74.241 125.211C74.1653 125.288 74.0623 125.333 73.9541 125.335Z" fill="#424D79"/>
</g>
<defs>
<clipPath id="clip0_19:113">
<rect width="80" height="126.1" fill="white"/>
</clipPath>
</defs>
</svg>
