<svg width="122" height="126" viewBox="0 0 122 126" fill="none" xmlns="http://www.w3.org/2000/svg">
<g clip-path="url(#clip0_19:123)">
<path d="M121.299 95.5746C121.119 95.5746 120.945 95.4941 120.817 95.3505C120.689 95.2069 120.615 95.0118 120.614 94.8076V27.9223L114.605 25.1157C114.522 25.077 114.447 25.0202 114.384 24.9487C114.321 24.8771 114.27 24.7921 114.236 24.6986C114.202 24.6051 114.184 24.5048 114.184 24.4036C114.184 24.3024 114.202 24.2021 114.236 24.1086C114.27 24.0151 114.321 23.9301 114.384 23.8585C114.447 23.7869 114.522 23.7301 114.605 23.6914C114.688 23.6527 114.777 23.6327 114.866 23.6327C114.956 23.6327 115.044 23.6527 115.127 23.6914L121.56 26.6918C121.684 26.7515 121.79 26.8513 121.865 26.9788C121.939 27.1062 121.978 27.2556 121.978 27.4082V94.8329C121.972 95.0319 121.898 95.2206 121.771 95.359C121.645 95.4974 121.475 95.5747 121.299 95.5746Z" fill="#424D79"/>
<path d="M98.8091 123.893C98.7207 123.894 98.6331 123.875 98.5512 123.837C98.4693 123.8 98.3949 123.744 98.332 123.674C98.204 123.528 98.1318 123.331 98.1307 123.126V110.686C98.1308 110.58 98.15 110.476 98.1872 110.379C98.2243 110.281 98.2787 110.194 98.3469 110.122C98.4916 109.981 98.6783 109.909 98.8687 109.919L121.061 112.026C121.247 112.053 121.417 112.159 121.538 112.321C121.667 112.376 121.778 112.474 121.857 112.602C121.935 112.73 121.977 112.882 121.978 113.038V122.528C121.978 122.73 121.907 122.923 121.782 123.067C121.656 123.211 121.485 123.292 121.307 123.295L98.824 123.859L98.8091 123.893ZM99.4949 111.554V122.334L120.613 121.811V113.569L99.4949 111.554Z" fill="#424D79"/>
<path d="M91.8616 112.237C91.7722 112.238 91.6835 112.219 91.6008 112.181C91.518 112.143 91.4429 112.086 91.3797 112.015C91.3165 111.943 91.2666 111.858 91.2328 111.765C91.1991 111.671 91.1822 111.571 91.1832 111.47V95.4566C91.1845 95.2874 91.2348 95.1233 91.3263 94.9894C91.4178 94.8555 91.5456 94.7591 91.6901 94.715L99.1819 92.4815C99.2585 92.4691 99.3363 92.4691 99.413 92.4815L121.381 94.597C121.542 94.6125 121.693 94.6923 121.806 94.8221C121.919 94.9518 121.988 95.123 122 95.3049C122.019 95.4944 121.975 95.6851 121.878 95.8406C121.78 95.9961 121.635 96.1054 121.471 96.1477L92.5996 103.623H92.5399V110.644L98.7421 109.945C98.922 109.924 99.1016 109.986 99.2414 110.116C99.3812 110.245 99.4697 110.432 99.4875 110.636C99.5053 110.839 99.4509 111.042 99.3363 111.2C99.2216 111.358 99.0561 111.458 98.8762 111.478L91.9287 112.262L91.8616 112.237ZM92.5399 96.0803V101.98L116.916 95.6673L99.413 93.9817L92.5399 96.0803Z" fill="#424D79"/>
<path d="M98.8092 123.893H98.7645L85.0557 122.848C84.8836 122.831 84.7233 122.742 84.6061 122.599C84.4889 122.455 84.4232 122.268 84.422 122.073V98.7183L75.2903 101.348C75.189 101.377 75.0831 101.38 74.9808 101.355C74.8786 101.33 74.7829 101.279 74.7014 101.205C74.6199 101.133 74.554 101.04 74.5087 100.935C74.4635 100.83 74.4402 100.715 74.4405 100.598V45.4358L61.3057 42.2163C61.2109 42.2033 61.1196 42.168 61.0376 42.1128C60.9556 42.0575 60.8847 41.9836 60.8295 41.8956C60.7742 41.8076 60.7358 41.7075 60.7167 41.6018C60.6976 41.4961 60.6982 41.387 60.7185 41.2816C60.7388 41.1761 60.7784 41.0766 60.8347 40.9895C60.8909 40.9023 60.9627 40.8294 61.0453 40.7754C61.128 40.7213 61.2197 40.6874 61.3146 40.6758C61.4094 40.6641 61.5054 40.675 61.5964 40.7077L75.2605 44.0789C75.4123 44.1187 75.5479 44.2152 75.6453 44.3529C75.7427 44.4905 75.7962 44.6612 75.7972 44.8375V99.6201L84.9364 96.9821C85.0364 96.9524 85.1413 96.95 85.2423 96.9749C85.3434 96.9998 85.4378 97.0513 85.5178 97.1253C85.6012 97.196 85.6688 97.2876 85.7154 97.3929C85.7619 97.4983 85.7862 97.6144 85.7862 97.7322V121.331L98.8614 122.334C98.9522 122.341 99.0408 122.369 99.1221 122.416C99.2033 122.462 99.2755 122.527 99.3345 122.605C99.3935 122.683 99.438 122.774 99.4656 122.873C99.4932 122.971 99.5031 123.074 99.495 123.177C99.4801 123.371 99.4016 123.552 99.2748 123.685C99.1479 123.817 98.9819 123.892 98.8092 123.893Z" fill="#424D79"/>
<path d="M99.3533 94.0154C99.1734 94.0154 99.0009 93.9346 98.8737 93.7908C98.7464 93.6469 98.675 93.4518 98.675 93.2484V62.9073C98.6747 62.7769 98.7032 62.6485 98.7578 62.5338C98.8125 62.419 98.8916 62.3214 98.988 62.2499L102.812 59.5361C102.969 59.4313 103.155 59.3953 103.334 59.4349L115.038 62.6376C115.171 62.6763 115.291 62.7596 115.382 62.8766C115.473 62.9936 115.531 63.139 115.548 63.2936C115.565 63.4483 115.54 63.6052 115.477 63.7437C115.414 63.8823 115.315 63.9961 115.194 64.0704L111.131 66.464C110.992 66.5476 110.831 66.5744 110.677 66.5398L100.039 64.0535V93.2484C100.037 93.4526 99.9641 93.6477 99.8356 93.7913C99.7072 93.9349 99.5339 94.0154 99.3533 94.0154ZM100.911 62.6797L110.714 64.9469L112.95 63.6237L103.259 60.9857L100.911 62.6797Z" fill="#424D79"/>
<path d="M103.177 60.9354C102.996 60.9354 102.821 60.8537 102.693 60.7082C102.564 60.5628 102.492 60.3656 102.492 60.16V2.70565L96.215 10.1898V20.9103C96.2164 21.046 96.1853 21.1796 96.1249 21.2968C96.0645 21.4141 95.9772 21.5106 95.8721 21.5762L63.8178 42.2924C63.7398 42.3545 63.6511 42.3975 63.5575 42.4186C63.4639 42.4398 63.3674 42.4386 63.2742 42.4151C63.1811 42.3917 63.0932 42.3465 63.0164 42.2825C62.9396 42.2185 62.8754 42.1371 62.828 42.0434C62.7805 41.9498 62.7509 41.8459 62.7411 41.7386C62.7312 41.6313 62.7412 41.5228 62.7705 41.4201C62.7998 41.3174 62.8478 41.2227 62.9113 41.1422C62.9749 41.0616 63.0526 40.997 63.1395 40.9523L94.821 20.4636V9.88638C94.8203 9.68887 94.8871 9.49867 95.0074 9.35541L102.678 0.244644C102.773 0.134658 102.894 0.0584639 103.026 0.0255049C103.159 -0.00745406 103.297 0.00427073 103.423 0.0592263C103.55 0.116693 103.658 0.215735 103.733 0.343487C103.809 0.471239 103.849 0.6218 103.848 0.775614V60.16C103.848 60.3627 103.778 60.5574 103.653 60.7024C103.527 60.8473 103.357 60.9309 103.177 60.9354Z" fill="#424D79"/>
<path d="M114.881 64.1294C114.7 64.1294 114.527 64.0489 114.399 63.9053C114.27 63.7617 114.197 63.5666 114.195 63.3624V7.18918L102.872 1.47493C102.725 1.37899 102.614 1.22465 102.562 1.04183C102.509 0.859012 102.519 0.660739 102.589 0.485452C102.658 0.310165 102.783 0.170352 102.939 0.0931191C103.094 0.0158861 103.27 0.00673535 103.431 0.0674409L115.134 5.96711C115.254 6.02732 115.356 6.12542 115.427 6.24955C115.499 6.37368 115.537 6.51855 115.537 6.66664V63.3624C115.537 63.5615 115.469 63.7529 115.346 63.896C115.224 64.0391 115.057 64.1228 114.881 64.1294Z" fill="#424D79"/>
<path d="M112.257 57.9347H112.168L105.794 55.8782C105.722 55.8559 105.66 55.8073 105.615 55.7402C105.571 55.6731 105.547 55.5913 105.548 55.5074V6.43903C105.547 6.3749 105.561 6.31168 105.589 6.25555C105.616 6.19942 105.656 6.15229 105.705 6.11877C105.752 6.08595 105.806 6.06857 105.861 6.06857C105.916 6.06857 105.971 6.08595 106.018 6.11877L112.391 9.11917C112.453 9.14781 112.506 9.19685 112.544 9.25995C112.581 9.32305 112.6 9.39731 112.6 9.47315V57.5554C112.599 57.6141 112.586 57.6717 112.563 57.7242C112.54 57.7767 112.507 57.8226 112.466 57.8588C112.405 57.9077 112.332 57.9342 112.257 57.9347ZM106.234 55.2124L111.914 57.0413V9.69228L106.234 7.01214V55.2124Z" fill="#424D79"/>
<path d="M6.34381 126C6.25383 126.002 6.16437 125.984 6.08074 125.946C5.99712 125.909 5.92105 125.853 5.85706 125.781C5.79307 125.709 5.74247 125.624 5.70827 125.53C5.67408 125.436 5.65698 125.335 5.658 125.233V74.7319C5.65854 74.6246 5.67945 74.5186 5.71932 74.4212C5.75919 74.3238 5.81708 74.2372 5.88909 74.1672C6.03678 74.0278 6.22642 73.9584 6.41836 73.9734L38.2564 78.1284V47.7873L35.7294 51.8581C35.6442 51.9885 35.5251 52.0854 35.3887 52.1353C35.2524 52.1852 35.1056 52.1855 34.969 52.1362C34.8325 52.0869 34.713 51.9905 34.6275 51.8605C34.5419 51.7305 34.4945 51.5734 34.4919 51.4114V27.4419C34.4927 27.3252 34.5165 27.2101 34.5617 27.1051C34.6068 27.0001 34.6721 26.9079 34.7528 26.8351C34.8344 26.7642 34.9291 26.7153 35.0298 26.6919C35.1306 26.6686 35.2347 26.6714 35.3343 26.7002L61.5591 33.9484C61.7076 33.9897 61.8397 34.086 61.9342 34.2219C62.0288 34.3578 62.0804 34.5256 62.081 34.6985V50.7119L66.7549 51.7822C66.9082 51.8204 67.0454 51.9162 67.1443 52.0539C67.2431 52.1917 67.2977 52.3634 67.2991 52.5408V95.1026C67.2982 95.2083 67.2786 95.3127 67.2415 95.4097C67.2043 95.5066 67.1504 95.5942 67.0829 95.6673C66.9402 95.8057 66.7564 95.8779 66.5686 95.8696L11.6589 91.2088V108.706L67.0904 111.006C67.267 111.015 67.4339 111.101 67.5561 111.245C67.6784 111.39 67.7465 111.582 67.7464 111.782V124.129C67.7464 124.331 67.6759 124.525 67.5503 124.668C67.4247 124.812 67.2541 124.894 67.0755 124.896L6.35127 126H6.34381ZM7.02217 75.6V124.483L66.3449 123.37V112.523L10.9283 110.18C10.7523 110.174 10.5855 110.09 10.463 109.947C10.3406 109.804 10.2722 109.613 10.2723 109.414V90.3407C10.2732 90.2351 10.2928 90.1307 10.3299 90.0337C10.3671 89.9367 10.421 89.8491 10.4885 89.7761C10.5561 89.7022 10.6372 89.6459 10.726 89.6109C10.8148 89.576 10.9093 89.5633 11.0029 89.5738L65.9126 94.2345V53.1391L39.5982 47.0878V78.9881C39.5935 79.2075 39.5133 79.4161 39.3746 79.5696C39.3013 79.6407 39.2157 79.6939 39.1234 79.7258C39.031 79.7577 38.9338 79.7676 38.8379 79.7551L7.02217 75.6ZM38.5099 45.2589C38.5543 45.2505 38.5996 45.2505 38.6441 45.2589L60.7168 50.3157V35.2969L35.8561 28.428V48.9672L37.9508 45.596C38.0139 45.4952 38.0978 45.4133 38.1952 45.3575C38.2927 45.3017 38.4007 45.2736 38.5099 45.2757V45.2589Z" fill="#424D79"/>
<path d="M17.7864 76.7631C17.6065 76.7631 17.434 76.6823 17.3068 76.5384C17.1795 76.3946 17.1081 76.1995 17.1081 75.9961V64.3316C17.1062 64.2057 17.1318 64.0813 17.1826 63.9692L34.5739 27.0795C34.6606 26.9003 34.8063 26.7671 34.9794 26.7087C35.1525 26.6504 35.3389 26.6715 35.4983 26.7676C35.5781 26.8146 35.6488 26.8791 35.7063 26.9573C35.7639 27.0355 35.8071 27.1258 35.8335 27.2231C35.8598 27.3204 35.8688 27.4226 35.8599 27.5238C35.851 27.625 35.8243 27.7232 35.7815 27.8127L18.4648 64.5255V75.9961C18.4658 76.0971 18.4489 76.1974 18.4152 76.2909C18.3814 76.3845 18.3315 76.4695 18.2683 76.541C18.2051 76.6124 18.1299 76.6688 18.0472 76.707C17.9644 76.7451 17.8758 76.7642 17.7864 76.7631Z" fill="#424D79"/>
<path d="M61.1268 112.094C60.9449 112.094 60.7705 112.012 60.6418 111.867C60.5132 111.721 60.441 111.524 60.441 111.318V97.7659C60.4429 97.615 60.4833 97.4679 60.5573 97.3423C60.6314 97.2167 60.7359 97.118 60.8584 97.058L66.3449 94.3947C66.4272 94.3548 66.5155 94.3337 66.605 94.3325C66.6944 94.3312 66.7832 94.3499 66.8663 94.3875C66.9494 94.4251 67.0251 94.4808 67.0891 94.5514C67.1531 94.6221 67.2042 94.7063 67.2395 94.7992C67.2747 94.8922 67.2934 94.9921 67.2945 95.0933C67.2956 95.1944 67.279 95.2948 67.2458 95.3887C67.2126 95.4826 67.1633 95.5682 67.1008 95.6406C67.0384 95.713 66.9639 95.7708 66.8816 95.8106L61.7902 98.2885V111.335C61.7865 111.534 61.7156 111.723 61.5922 111.864C61.4688 112.005 61.3022 112.087 61.1268 112.094Z" fill="#424D79"/>
<path d="M75.1636 78.9712H75.0741L66.8145 77.707C66.6397 77.6797 66.4811 77.5763 66.3726 77.419C66.264 77.2616 66.214 77.0626 66.2331 76.8642C66.2432 76.7654 66.2706 76.6698 66.3137 76.5831C66.3568 76.4964 66.4147 76.4202 66.4841 76.3591C66.5535 76.2979 66.6329 76.2529 66.7178 76.2268C66.8027 76.2007 66.8913 76.1939 66.9785 76.2068L75.2903 77.4373C75.4649 77.4666 75.6231 77.5701 75.7325 77.7267C75.8419 77.8834 75.8944 78.0813 75.8792 78.2801C75.8604 78.4768 75.7758 78.6579 75.6428 78.7864C75.5097 78.9148 75.3383 78.981 75.1636 78.9712Z" fill="#424D79"/>
<path d="M75.0219 90.6357H74.9697L66.8592 90.0036C66.7684 89.9962 66.6798 89.9684 66.5985 89.9218C66.5173 89.8753 66.4451 89.8109 66.3861 89.7324C66.3271 89.654 66.2826 89.563 66.255 89.4649C66.2274 89.3667 66.2174 89.2634 66.2256 89.1608C66.2408 88.9542 66.3278 88.7629 66.4675 88.6286C66.6072 88.4943 66.7883 88.4281 66.971 88.4444L75.0815 89.0765C75.1706 89.0799 75.2582 89.103 75.3394 89.1446C75.4206 89.1862 75.4937 89.2455 75.5546 89.3191C75.6156 89.3926 75.6631 89.479 75.6944 89.5734C75.7258 89.6677 75.7404 89.7681 75.7375 89.8688C75.7346 89.9695 75.7141 90.0686 75.6773 90.1604C75.6405 90.2521 75.5881 90.3348 75.523 90.4037C75.4579 90.4726 75.3815 90.5263 75.2981 90.5617C75.2147 90.5972 75.1259 90.6138 75.0368 90.6105L75.0219 90.6357Z" fill="#424D79"/>
<path d="M61.1268 98.516H61.0746L11.0327 94.0997C10.8528 94.0841 10.6857 93.9882 10.5683 93.8333C10.4508 93.6784 10.3926 93.4772 10.4065 93.2737C10.4203 93.0703 10.5051 92.8815 10.6421 92.7487C10.7791 92.6159 10.9571 92.5501 11.137 92.5658L61.164 96.9821C61.3439 96.9899 61.5137 97.0782 61.6361 97.2276C61.7584 97.377 61.8232 97.5751 61.8163 97.7786C61.8094 97.982 61.7313 98.1739 61.5992 98.3122C61.4671 98.4505 61.2918 98.5238 61.1119 98.516H61.1268Z" fill="#424D79"/>
<path d="M85.1078 122.814H85.0482L67.1574 121.196C67.0683 121.188 66.9816 121.16 66.9021 121.113C66.8226 121.067 66.7519 121.004 66.6941 120.927C66.6363 120.85 66.5925 120.76 66.5652 120.664C66.5379 120.568 66.5276 120.467 66.535 120.366C66.5423 120.265 66.5671 120.167 66.608 120.077C66.6489 119.987 66.705 119.907 66.7732 119.842C66.8414 119.777 66.9203 119.727 67.0054 119.696C67.0905 119.665 67.1802 119.654 67.2693 119.662L85.16 121.28C85.3288 121.306 85.483 121.402 85.5926 121.55C85.7022 121.697 85.7593 121.886 85.7528 122.078C85.7463 122.271 85.6766 122.454 85.5574 122.591C85.4382 122.729 85.2779 122.811 85.1078 122.823V122.814Z" fill="#424D79"/>
<path d="M6.3438 126C6.17052 126.001 6.0032 125.928 5.87417 125.798L0.216216 119.898C0.0837873 119.747 0.0065771 119.546 3.61468e-05 119.333V78.2886C-0.00122858 78.1508 0.0307169 78.0153 0.092443 77.8965C0.154169 77.7777 0.243345 77.6801 0.350397 77.6143L6.00835 74.0577C6.16792 73.9605 6.35481 73.9378 6.52898 73.9945C6.70315 74.0513 6.85075 74.1828 6.94016 74.3611C7.02893 74.5352 7.05445 74.7414 7.01134 74.9364C6.96823 75.1314 6.85986 75.2998 6.70907 75.4062L1.40148 78.7774V119.022L6.84325 124.711C6.90658 124.782 6.95684 124.866 6.99113 124.96C7.02543 125.053 7.04308 125.153 7.04308 125.254C7.04308 125.355 7.02543 125.455 6.99113 125.548C6.95684 125.642 6.90658 125.726 6.84325 125.798C6.70707 125.937 6.52742 126.01 6.3438 126Z" fill="#424D79"/>
</g>
<defs>
<clipPath id="clip0_19:123">
<rect width="122" height="126" fill="white"/>
</clipPath>
</defs>
</svg>
