<svg width="78" height="137" viewBox="0 0 78 137" fill="none" xmlns="http://www.w3.org/2000/svg">
<g clip-path="url(#clip0_18:93)">
<path d="M60.8197 106.858H0.74211C0.622825 106.864 0.50399 106.84 0.395664 106.788C0.287339 106.736 0.192711 106.657 0.11979 106.56C0.0468691 106.462 -0.00219823 106.347 -0.023259 106.226C-0.0443198 106.104 -0.0367542 105.979 -0.0012024 105.861L30.0662 0.48986C30.1368 0.357849 30.2404 0.247812 30.3661 0.171189C30.4918 0.0945657 30.635 0.0541534 30.7809 0.0541534C30.9268 0.0541534 31.0701 0.0945657 31.1958 0.171189C31.3215 0.247812 31.425 0.357849 31.4957 0.48986L61.5385 105.861C61.5698 105.977 61.575 106.099 61.5537 106.217C61.5324 106.335 61.4853 106.446 61.4158 106.542C61.3464 106.639 61.2566 106.717 61.1533 106.772C61.0499 106.827 60.9358 106.856 60.8197 106.858ZM1.74681 105.312H59.8232L30.785 3.44594L1.74681 105.312Z" fill="#424D79"/>
<path d="M38.644 136.123H30.7861C30.6878 136.124 30.5903 136.105 30.4992 136.067C30.4081 136.029 30.3251 135.973 30.2553 135.901C30.1854 135.83 30.1299 135.745 30.092 135.651C30.0542 135.557 30.0347 135.456 30.0347 135.355V27.6774C30.054 27.4863 30.1411 27.3095 30.2791 27.1809C30.4171 27.0524 30.5963 26.9812 30.7821 26.9812C30.9678 26.9812 31.147 27.0524 31.285 27.1809C31.423 27.3095 31.5101 27.4863 31.5295 27.6774V134.586H38.644C38.8412 134.586 39.0302 134.667 39.1696 134.811C39.309 134.955 39.3873 135.151 39.3873 135.355C39.3873 135.559 39.309 135.754 39.1696 135.898C39.0302 136.042 38.8412 136.123 38.644 136.123V136.123Z" fill="#424D79"/>
<path d="M30.7535 94.7382C30.6561 94.7383 30.5595 94.7182 30.4697 94.6791C30.3799 94.6399 30.2987 94.5824 30.2308 94.5101L17.7823 81.6385C17.6426 81.494 17.5641 81.2981 17.5641 81.0937C17.5641 80.8894 17.6426 80.6935 17.7823 80.549C17.922 80.4045 18.1116 80.3233 18.3092 80.3233C18.5068 80.3233 18.6963 80.4045 18.836 80.549L31.2845 93.4121C31.4251 93.5578 31.5041 93.7553 31.5041 93.9611C31.5041 94.167 31.4251 94.3644 31.2845 94.5101C31.215 94.5827 31.1323 94.6402 31.0412 94.6794C30.95 94.7185 30.8522 94.7385 30.7535 94.7382V94.7382Z" fill="#424D79"/>
<path d="M30.5166 68.4797C30.4192 68.4794 30.3228 68.4591 30.2331 68.4199C30.1434 68.3808 30.062 68.3236 29.9939 68.2517L21.4008 59.375C21.2816 59.2264 21.2201 59.0372 21.2284 58.8443C21.2367 58.6514 21.3142 58.4685 21.4457 58.3315C21.5773 58.1944 21.7535 58.1129 21.94 58.1028C22.1265 58.0927 22.3099 58.1549 22.4545 58.277L31.0394 67.1621C31.1416 67.2712 31.2106 67.4089 31.2379 67.558C31.2653 67.7072 31.2498 67.8614 31.1933 68.0016C31.1368 68.1418 31.0418 68.2617 30.9201 68.3467C30.7984 68.4317 30.6553 68.4779 30.5085 68.4797H30.5166Z" fill="#424D79"/>
<path d="M30.7453 45.2703C30.6479 45.27 30.5515 45.2496 30.4618 45.2105C30.372 45.1714 30.2907 45.1142 30.2225 45.0422L26.2119 40.8953C26.0722 40.7508 25.9937 40.5548 25.9937 40.3505C25.9937 40.1462 26.0722 39.9502 26.2119 39.8057C26.3516 39.6613 26.5411 39.5801 26.7387 39.5801C26.9363 39.5801 27.1259 39.6613 27.2656 39.8057L31.2762 43.9189C31.3784 44.028 31.4474 44.1656 31.4747 44.3148C31.5021 44.464 31.4866 44.6182 31.4301 44.7584C31.3736 44.8985 31.2786 45.0185 31.1569 45.1035C31.0352 45.1885 30.8921 45.2347 30.7453 45.2365V45.2703Z" fill="#424D79"/>
<path d="M76.6265 116.571H38.0886L57.3576 48.9696L76.6265 116.571Z" fill="white"/>
<path d="M76.6265 117.348H38.0886C37.9715 117.347 37.8561 117.318 37.7513 117.264C37.6466 117.21 37.5552 117.132 37.4842 117.035C37.4164 116.939 37.3708 116.829 37.351 116.711C37.3311 116.594 37.3376 116.474 37.3698 116.36L56.6388 48.75C56.7094 48.618 56.8129 48.5079 56.9386 48.4313C57.0643 48.3547 57.2076 48.3143 57.3535 48.3143C57.4994 48.3143 57.6426 48.3547 57.7683 48.4313C57.894 48.5079 57.9976 48.618 58.0682 48.75L77.3453 116.36C77.3783 116.474 77.3845 116.595 77.3631 116.713C77.3418 116.83 77.2937 116.941 77.2228 117.035C77.1539 117.132 77.0641 117.211 76.9606 117.265C76.857 117.319 76.7426 117.348 76.6265 117.348ZM39.0525 115.802H75.63L57.3576 51.7061L39.0525 115.802Z" fill="#424D79"/>
<path d="M63.8922 136.123H57.3576C57.2593 136.124 57.1618 136.105 57.0706 136.067C56.9795 136.029 56.8966 135.973 56.8267 135.901C56.7568 135.83 56.7014 135.745 56.6635 135.651C56.6256 135.557 56.6061 135.456 56.6061 135.355V66.5287C56.5952 66.4204 56.6063 66.311 56.6389 66.2075C56.6715 66.1039 56.7247 66.0086 56.7952 65.9278C56.8656 65.8469 56.9518 65.7822 57.0479 65.7379C57.1441 65.6937 57.2482 65.6708 57.3535 65.6708C57.4588 65.6708 57.5629 65.6937 57.6591 65.7379C57.7553 65.7822 57.8414 65.8469 57.9119 65.9278C57.9824 66.0086 58.0356 66.1039 58.0682 66.2075C58.1007 66.311 58.1119 66.4204 58.1009 66.5287V134.586H63.8922C64.0894 134.586 64.2784 134.667 64.4178 134.811C64.5572 134.955 64.6355 135.151 64.6355 135.355C64.6355 135.559 64.5572 135.754 64.4178 135.898C64.2784 136.042 64.0894 136.123 63.8922 136.123V136.123Z" fill="#424D79"/>
<path d="M57.3331 109.569C57.2357 109.569 57.1393 109.549 57.0496 109.509C56.9598 109.47 56.8785 109.413 56.8103 109.341L48.8217 101.09C48.7473 101.019 48.6875 100.933 48.6459 100.837C48.6043 100.742 48.5818 100.639 48.5797 100.534C48.5777 100.429 48.5961 100.325 48.6339 100.228C48.6717 100.131 48.7281 100.043 48.7997 99.9688C48.8713 99.8947 48.9566 99.8364 49.0506 99.7973C49.1445 99.7582 49.2451 99.7392 49.3464 99.7413C49.4476 99.7435 49.5474 99.7667 49.6397 99.8097C49.732 99.8527 49.815 99.9146 49.8836 99.9915L57.864 108.252C57.9662 108.361 58.0352 108.498 58.0626 108.648C58.0899 108.797 58.0744 108.951 58.0179 109.091C57.9614 109.231 57.8665 109.351 57.7448 109.436C57.623 109.521 57.4799 109.567 57.3331 109.569V109.569Z" fill="#424D79"/>
<path d="M57.1778 92.728C56.9786 92.7278 56.7876 92.6458 56.6469 92.5L51.1414 86.799C51.0017 86.6545 50.9232 86.4586 50.9232 86.2542C50.9232 86.0499 51.0017 85.8539 51.1414 85.7095C51.2812 85.565 51.4707 85.4838 51.6683 85.4838C51.8659 85.4838 52.0554 85.565 52.1952 85.7095L57.7087 91.4105C57.8109 91.5195 57.8799 91.6572 57.9073 91.8064C57.9346 91.9556 57.9191 92.1098 57.8626 92.2499C57.8061 92.3901 57.7112 92.5101 57.5895 92.595C57.4678 92.68 57.3246 92.7263 57.1778 92.728V92.728Z" fill="#424D79"/>
<path d="M57.333 77.8378C57.1338 77.8376 56.9428 77.7556 56.8021 77.6098L53.7226 74.4172C53.5829 74.2727 53.5044 74.0768 53.5044 73.8725C53.5044 73.6681 53.5829 73.4722 53.7226 73.3277C53.8624 73.1832 54.0519 73.1021 54.2495 73.1021C54.4471 73.1021 54.6366 73.1832 54.7763 73.3277L57.8639 76.5203C57.9661 76.6293 58.0351 76.767 58.0625 76.9162C58.0898 77.0654 58.0743 77.2196 58.0178 77.3597C57.9613 77.4999 57.8664 77.6199 57.7447 77.7048C57.623 77.7898 57.4798 77.836 57.333 77.8378V77.8378Z" fill="#424D79"/>
<path d="M30.7861 54.1723C30.6365 54.1773 30.4888 54.1359 30.3621 54.0535C30.2353 53.9712 30.1353 53.8515 30.0747 53.71C30.0142 53.5684 29.9959 53.4114 30.0222 53.259C30.0485 53.1066 30.1183 52.9659 30.2225 52.8547L36.1037 46.7736C36.2434 46.6292 36.4329 46.548 36.6305 46.548C36.8281 46.548 37.0176 46.6292 37.1574 46.7736C37.2971 46.9181 37.3756 47.1141 37.3756 47.3184C37.3756 47.5227 37.2971 47.7187 37.1574 47.8632L31.2762 53.9443C31.147 54.0822 30.9717 54.1638 30.7861 54.1723V54.1723Z" fill="#424D79"/>
<path d="M30.9658 82.4578C30.818 82.4583 30.6733 82.4132 30.5503 82.3283C30.4274 82.2433 30.3317 82.1224 30.2756 81.9809C30.2195 81.8394 30.2054 81.6839 30.2353 81.5341C30.2651 81.3844 30.3374 81.2472 30.4431 81.1402L39.5834 71.6892C39.7231 71.5447 39.9126 71.4635 40.1102 71.4635C40.3078 71.4635 40.4973 71.5447 40.6371 71.6892C40.7768 71.8337 40.8553 72.0296 40.8553 72.2339C40.8553 72.4383 40.7768 72.6342 40.6371 72.7787L31.4968 82.2382C31.3538 82.3793 31.1636 82.458 30.9658 82.4578V82.4578Z" fill="#424D79"/>
<path d="M57.3576 83.5473C57.2108 83.5455 57.0677 83.4993 56.9459 83.4143C56.8242 83.3293 56.7293 83.2093 56.6728 83.0692C56.6163 82.929 56.6008 82.7748 56.6281 82.6256C56.6555 82.4764 56.7245 82.3388 56.8267 82.2297L60.5922 78.3361C60.7338 78.2273 60.9082 78.174 61.0842 78.1859C61.2602 78.1978 61.4264 78.274 61.5531 78.4009C61.6798 78.5278 61.7587 78.6972 61.7757 78.8787C61.7927 79.0603 61.7467 79.2422 61.6459 79.3919L57.8804 83.2855C57.8153 83.3639 57.7353 83.4277 57.6454 83.4727C57.5554 83.5178 57.4575 83.5431 57.3576 83.5473V83.5473Z" fill="#424D79"/>
<path d="M57.5536 101.191C57.4074 101.187 57.2654 101.14 57.1449 101.054C57.0244 100.969 56.9307 100.849 56.8752 100.709C56.8197 100.569 56.8049 100.416 56.8325 100.267C56.8602 100.119 56.9291 99.9819 57.0308 99.8733L62.479 94.2399C62.6188 94.0954 62.8083 94.0142 63.0059 94.0142C63.2035 94.0142 63.393 94.0954 63.5327 94.2399C63.6725 94.3843 63.751 94.5803 63.751 94.7846C63.751 94.989 63.6725 95.1849 63.5327 95.3294L58.0845 100.963C58.0151 101.035 57.9324 101.093 57.8412 101.132C57.7501 101.171 57.6523 101.191 57.5536 101.191V101.191Z" fill="#424D79"/>
</g>
<defs>
<clipPath id="clip0_18:93">
<rect width="77.3699" height="136.123" fill="white"/>
</clipPath>
</defs>
</svg>
